HIERARCHY
ROOT root
{
	OFFSET	0	13.1	24.9
	CHANNELS 6  Xposition Yposition Zposition Xrotation Yrotation Zrotation
	JOINT spine_1
	{
		OFFSET	0	9.99999	0
		CHANNELS 3  Xrotation Yrotation Zrotation
		JOINT spine_2
		{
			OFFSET	0	112	-10
			CHANNELS 3  Xrotation Yrotation Zrotation
			JOINT spine_3
			{
				OFFSET	0	206.5	19.3
				CHANNELS 3  Xrotation Yrotation Zrotation
				JOINT spine_4
				{
					OFFSET	0	110.4	14.6
					CHANNELS 3  Xrotation Yrotation Zrotation
					JOINT neck_1
					{
						OFFSET	0	71.8	-50.3
						CHANNELS 3  Xrotation Yrotation Zrotation
						JOINT neck_2
						{
							OFFSET	0	86.2	-25.8
							CHANNELS 3  Xrotation Yrotation Zrotation
							JOINT head_ee
							{
								OFFSET	0	179.8	-8.7
								CHANNELS 3  Xrotation Yrotation Zrotation
								End Site
								{
									OFFSET	1	0	0
								}
							}
						}
					}
					JOINT left_clavicle
					{
						OFFSET	-43.2	22.4	-70.8
						CHANNELS 3  Xrotation Yrotation Zrotation
						JOINT left_shoulder
						{
							OFFSET	-93.9	-5.79999	48.7
							CHANNELS 3  Xrotation Yrotation Zrotation
							JOINT left_elbow
							{
								OFFSET	-291.4	-30.8	15.2
								CHANNELS 3  Xrotation Yrotation Zrotation
								JOINT left_lowarm_twist
								{
									OFFSET	-110.7	-3.89999	13.6
									CHANNELS 3  Xrotation Yrotation Zrotation
									JOINT left_hand
									{
										OFFSET	-110.7	-3.89999	13.6
										CHANNELS 3  Xrotation Yrotation Zrotation
										JOINT left_ee
										{
											OFFSET	-80.8	-5.10001	12.1
											CHANNELS 3  Xrotation Yrotation Zrotation
											End Site
											{
												OFFSET	1	0	0
											}
										}
									}
								}
							}
						}
					}
					JOINT right_clavicle
					{
						OFFSET	43.2	22.4	-70.8
						CHANNELS 3  Xrotation Yrotation Zrotation
						JOINT right_shoulder
						{
							OFFSET	93.9	-5.79999	48.7
							CHANNELS 3  Xrotation Yrotation Zrotation
							JOINT right_elbow
							{
								OFFSET	291.4	-30.8	15.2
								CHANNELS 3  Xrotation Yrotation Zrotation
								JOINT right_lowarm_twist
								{
									OFFSET	110.7	-3.89999	13.6
									CHANNELS 3  Xrotation Yrotation Zrotation
									JOINT right_hand
									{
										OFFSET	110.7	-3.89999	13.6
										CHANNELS 3  Xrotation Yrotation Zrotation
										JOINT right_ee
										{
											OFFSET	80.8	-5.10001	12.1
											CHANNELS 3  Xrotation Yrotation Zrotation
											End Site
											{
												OFFSET	1	0	0
											}
										}
									}
								}
							}
						}
					}
				}
			}
		}
	}
	JOINT left_hip
	{
		OFFSET	-82.8	-127.5	0.300001
		CHANNELS 3  Xrotation Yrotation Zrotation
		JOINT left_knee
		{
			OFFSET	-28.2	-396.7	2.2
			CHANNELS 3  Xrotation Yrotation Zrotation
			JOINT left_ankle
			{
				OFFSET	-11.7	-411.3	35.4
				CHANNELS 3  Xrotation Yrotation Zrotation
				JOINT left_toes
				{
					OFFSET	0	-60	-88.6
					CHANNELS 3  Xrotation Yrotation Zrotation
					JOINT left_foot_ee
					{
						OFFSET	-22.5	-16.5	-42.2
						CHANNELS 3  Xrotation Yrotation Zrotation
						End Site
						{
							OFFSET	1	0	0
						}
					}
				}
			}
		}
	}
	JOINT right_hip
	{
		OFFSET	82.8	-127.5	0.300001
		CHANNELS 3  Xrotation Yrotation Zrotation
		JOINT right_knee
		{
			OFFSET	28.2	-396.7	2.2
			CHANNELS 3  Xrotation Yrotation Zrotation
			JOINT right_ankle
			{
				OFFSET	11.7	-411.3	35.4
				CHANNELS 3  Xrotation Yrotation Zrotation
				JOINT right_toes
				{
					OFFSET	0	-60	-88.6
					CHANNELS 3  Xrotation Yrotation Zrotation
					JOINT right_foot_ee
					{
						OFFSET	22.5	-16.5	-42.2
						CHANNELS 3  Xrotation Yrotation Zrotation
						End Site
						{
							OFFSET	1	0	0
						}
					}
				}
			}
		}
	}
}
MOTION
Frames: 16
Frame Time: 0.02
2017.28 722.066 -470.434 149.345 -74.1895 152.383 -3.12502 0.130685 -1.16663 -3.12428 0.204651 -1.15595 -3.12777 0.501759 -1.06131 -3.12919 0.32786 -1.12722 -20.0313 5.77478 8.34192 -19.8967 6.90698 10.1367 -0.0 0.0 -0.0 3.25345 22.5385 7.16852 -13.4658 -23.6907 63.613 1.43192 -35.3473 0.45628 -65.2314 -5.9396 5.23403 -2.22334 -1.28782 -15.6338 -0.0 0.0 -0.0 8.0308 9.93583 -15.5808 15.3154 -18.3303 -66.2261 0.693473 18.959 -0.115794 84.5832 4.37669 8.84673 2.99297 -14.8196 -25.5988 0.0 0.0 0.0 31.1916 52.0262 -37.0036 -19.8246 0.297685 3.01252 39.6147 -7.01957 -4.93176 -0.333058 0.0 0.0 -0.0 0.0 -0.0 -5.61066 7.10391 -7.24714 -16.9312 -0.31955 -2.56917 36.7684 -3.23607 4.57004 -16.25 0.0 0.0 0.0 0.0 0.0 
2022.23 722.598 -470.719 148.69 -74.5964 151.77 -3.09408 0.0126674 -0.915187 -3.09362 0.070875 -0.912526 -3.09425 0.308081 -0.86187 -3.09525 0.168104 -0.899706 -18.4344 6.35787 7.91899 -18.3308 8.00517 9.83856 -0.0 0.0 -0.0 3.38255 22.5219 7.35039 -14.1122 -22.1346 64.0477 1.28538 -32.485 0.374485 -64.7743 -5.88177 5.22483 -1.91934 3.80233 -11.141 -0.0 0.0 -0.0 8.40084 10.9358 -16.3431 17.4706 -17.7234 -66.1287 0.584408 16.1458 -0.0828923 84.8041 4.40308 8.85706 2.77248 -16.6011 -24.5843 0.0 0.0 0.0 34.3116 49.9271 -38.756 -24.6257 0.212126 3.74407 38.0037 -1.69191 -4.71466 3.84543 -0.0 -0.0 -0.0 0.0 -0.0 -6.63929 7.61559 -7.44616 -15.0838 -0.321792 -2.28574 36.3565 -4.25842 4.52916 -14.7903 0.0 0.0 0.0 0.0 0.0 
2032.32 720.429 -469.347 150.999 -74.6458 153.931 -3.02253 0.0986805 -0.799768 -3.02219 0.14937 -0.791869 -3.02396 0.351238 -0.725262 -3.02462 0.232292 -0.771628 -18.4554 6.36561 6.17651 -18.4425 8.95491 8.23192 -0.0 0.0 -0.0 3.12278 23.3498 6.99973 -16.0819 -21.7779 63.7237 1.25269 -31.8202 0.35709 -64.7908 -5.88385 5.22517 -1.7519 7.34769 -8.35085 -0.0 0.0 -0.0 8.94575 13.2366 -17.4429 20.7669 -16.8453 -65.9727 0.51193 14.2301 -0.0639014 85.2022 4.45075 8.87541 2.55394 -17.4493 -23.3422 0.0 0.0 0.0 36.8282 47.5988 -40.2007 -27.5745 0.129299 4.18899 36.9463 1.12663 -4.59584 7.3295 -0.0 -0.0 -0.0 0.0 -0.0 -7.45976 8.00235 -7.26972 -13.4049 -0.315902 -2.02822 36.2842 -4.23237 4.52239 -13.4831 0.0 0.0 0.0 0.0 0.0 
2042.44 714.175 -471.201 152.21 -74.7984 155.39 -2.65466 0.0687492 -0.795183 -2.65432 0.119208 -0.789198 -2.65567 0.316722 -0.732622 -2.65637 0.197047 -0.773445 -15.4987 7.03581 4.47592 -15.548 10.8568 6.60769 -0.0 0.0 -0.0 3.63666 23.2664 7.71239 -18.8841 -20.9566 63.2533 1.03891 -27.2318 0.25165 -64.1857 -5.80741 5.2123 -1.58659 11.0323 -5.54977 -0.0 0.0 -0.0 9.42365 15.6824 -18.3839 22.872 -15.7918 -65.8274 0.509092 14.1544 -0.0632056 84.893 4.41372 8.86119 1.72665 -20.8882 -18.9475 0.0 0.0 0.0 38.417 46.8394 -40.5803 -28.0066 0.115239 4.25382 35.7694 4.18467 -4.47367 11.0775 -0.0 -0.0 -0.0 0.0 -0.0 -7.95371 8.28674 -7.40312 -12.9062 -0.3127 -1.95178 40.264 -5.17591 4.88062 -14.334 0.0 0.0 0.0 0.0 0.0 
2052.07 710.557 -471.825 152.727 -74.2548 155.787 -2.7344 0.187377 -0.700999 -2.73416 0.231603 -0.687656 -2.73682 0.400332 -0.605184 -2.73721 0.299732 -0.660812 -13.5214 7.52159 3.84339 -13.5795 11.9584 5.96715 -0.0 0.0 -0.0 3.64787 24.0567 7.72958 -20.5323 -20.219 63.1932 0.933814 -24.8241 0.205523 -63.7904 -5.75756 5.20346 -1.42606 13.6566 -3.31895 -0.0 0.0 -0.0 9.8263 17.5657 -19.1752 25.3894 -15.4584 -65.5647 0.500604 13.9277 -0.0611463 85.2481 4.45625 8.87751 1.42028 -22.1309 -17.4079 0.0 0.0 0.0 39.7716 45.5406 -39.82 -28.1904 0.109112 4.28135 33.963 6.48423 -4.29704 12.5898 -0.0 -0.0 -0.0 0.0 -0.0 -9.20457 8.4867 -6.84853 -12.1654 -0.306714 -1.83827 41.5345 -5.88176 4.98893 -15.2148 0.0 0.0 0.0 0.0 0.0 
2063.4 709.696 -470.24 150.271 -74.1644 153.323 -2.8027 0.1938 -0.603581 -2.80253 0.231814 -0.590027 -2.80485 0.376082 -0.510327 -2.8051 0.290767 -0.563316 -13.9355 7.16554 2.26747 -14.0337 12.284 4.41055 -0.0 0.0 -0.0 4.08658 24.4326 8.32648 -23.045 -19.3428 62.5658 0.823886 -22.2016 0.161655 -64.1624 -5.80448 5.21179 -1.02794 16.0396 0.218729 -0.0 0.0 -0.0 10.2702 19.1583 -20.0676 27.7129 -14.6453 -65.6238 0.50636 14.0815 -0.0625391 85.2135 4.45211 8.87593 0.892056 -24.9409 -15.0854 0.0 0.0 0.0 39.0141 43.3578 -37.4781 -27.8353 0.120873 4.22812 28.3446 11.1727 -3.72184 14.5236 -0.0 -0.0 -0.0 0.0 -0.0 -11.4091 8.93012 -6.56282 -10.6936 -0.290471 -1.61303 41.1065 -5.37276 4.95243 -13.4332 0.0 0.0 0.0 0.0 0.0 
2075.05 708.663 -473.685 148.481 -74.4561 151.751 -2.87742 0.192118 -0.61009 -2.87724 0.23055 -0.59663 -2.87957 0.377237 -0.516541 -2.87983 0.290926 -0.569634 -14.0645 6.91253 1.11248 -14.1807 12.513 3.25237 -0.0 0.0 -0.0 4.181 24.8594 8.44824 -25.0156 -18.8038 62.6442 0.746658 -20.298 0.133661 -64.4244 -5.83756 5.21748 -0.749183 17.6937 2.63092 -0.0 0.0 -0.0 10.5493 20.3954 -20.6078 30.0644 -13.8179 -65.5762 0.52963 14.7011 -0.0683228 85.2277 4.45381 8.87658 0.522455 -26.8922 -13.5627 0.0 0.0 0.0 38.5398 41.7912 -35.8615 -26.8342 0.152247 4.07769 24.7948 14.3846 -3.33692 15.9588 -0.0 -0.0 -0.0 0.0 -0.0 -12.9616 8.8954 -6.37258 -9.75959 -0.277164 -1.47034 40.9987 -4.89793 4.94313 -12.1662 0.0 0.0 0.0 0.0 0.0 
2084.29 709.426 -476.636 147.563 -74.5894 151.08 -2.84201 0.223471 -0.638814 -2.84182 0.263667 -0.6233 -2.84463 0.415809 -0.533974 -2.84488 0.326261 -0.59294 -14.483 6.93884 0.6496 -14.6164 12.8635 2.87206 -0.0 0.0 -0.0 4.18046 25.085 8.44367 -26.4581 -18.3064 62.8129 0.691983 -18.9211 0.11531 -64.5889 -5.85833 5.22097 -0.519007 18.8968 4.52033 -0.0 0.0 -0.0 10.9288 21.3326 -21.3926 31.8574 -13.109 -65.6824 0.561019 15.5314 -0.0765086 85.2543 4.457 8.87779 0.282542 -28.5211 -12.7436 0.0 0.0 0.0 38.3356 40.5718 -34.4769 -25.7041 0.184495 3.90726 22.009 17.0558 -3.02344 16.9184 -0.0 -0.0 -0.0 0.0 -0.0 -14.3441 9.01698 -6.19242 -8.4877 -0.255304 -1.2764 40.2605 -4.59342 4.88036 -11.427 0.0 0.0 0.0 0.0 0.0 
2093.71 709.935 -478.719 148.699 -74.2685 152.402 -2.84152 0.313066 -0.500335 -2.84145 0.344269 -0.4794 -2.8444 0.456475 -0.374134 -2.84438 0.39166 -0.44153 -14.7972 7.69805 2.6376 -14.9231 13.1453 5.03406 -0.0 0.0 -0.0 4.61887 24.5465 9.04985 -27.9574 -17.7056 63.3898 0.514924 -14.31 0.0646394 -63.2756 -5.6927 5.19142 0.470597 19.7999 10.8409 -0.0 0.0 -0.0 10.8393 20.5074 -21.2538 31.851 -11.3292 -66.8363 0.713532 19.4666 -0.122395 85.1739 4.44736 8.87412 1.04008 -29.4652 -17.2757 0.0 0.0 0.0 39.7104 38.8608 -33.9814 -21.7029 0.271518 3.29954 15.4039 21.587 -2.21181 15.1063 -0.0 -0.0 -0.0 0.0 -0.0 -15.3104 8.66657 -6.0891 -7.2704 -0.230355 -1.09127 38.7256 -3.4454 4.74778 -10.4585 0.0 0.0 0.0 0.0 0.0 
2105.4 707.878 -481.867 147.423 -75.0519 151.288 -2.76302 0.27523 -0.454094 -2.76295 0.303567 -0.435661 -2.76532 0.405378 -0.342962 -2.76531 0.346126 -0.402679 -16.1181 7.78656 2.31563 -16.2865 13.6018 4.92768 -0.0 0.0 -0.0 4.55837 24.0331 8.98089 -28.918 -17.3639 64.0394 0.442445 -12.3625 0.0479185 -63.7014 -5.74633 5.20142 0.191896 20.3849 9.36905 -0.0 0.0 -0.0 10.832 20.6659 -21.2255 33.678 -11.3684 -66.3056 0.663083 18.184 -0.106115 84.9406 4.41941 8.86339 0.850262 -30.191 -16.416 0.0 0.0 0.0 41.1483 37.5814 -34.1695 -20.7268 0.286291 3.15048 14.7206 21.2491 -2.11597 14.3541 -0.0 -0.0 -0.0 0.0 -0.0 -15.9214 9.16295 -5.84305 -7.95194 -0.244808 -1.19485 39.181 -2.63679 4.79048 -9.67256 0.0 0.0 0.0 0.0 0.0 
2111.24 705.615 -481.362 146.463 -75.514 151.257 -2.72402 0.173212 -0.562484 -2.72386 0.208653 -0.550322 -2.72581 0.342807 -0.478409 -2.72603 0.26295 -0.526544 -17.8917 8.07606 2.3059 -18.1207 14.2801 5.26329 -0.0 0.0 -0.0 4.25799 23.6845 8.57281 -29.706 -17.2194 64.7719 0.418062 -11.7005 0.0428359 -62.7131 -5.62197 5.1776 1.00099 19.6087 14.0235 -0.0 0.0 -0.0 10.9443 20.4599 -21.4949 34.5249 -10.7518 -66.8339 0.823109 22.1828 -0.161362 85.2424 4.45558 8.87725 1.52531 -29.7049 -20.1055 0.0 0.0 0.0 41.5893 37.2344 -33.7261 -14.6756 0.321054 2.22312 11.2543 22.5914 -1.64709 13.0139 -0.0 -0.0 -0.0 0.0 -0.0 -16.507 7.79576 -6.77137 -7.13508 -0.227339 -1.07072 38.2563 -1.08229 4.71559 -9.46795 0.0 0.0 0.0 0.0 0.0 
2120.78 703.071 -484.331 146.235 -75.6398 151.375 -2.72342 0.148009 -0.501954 -2.7233 0.179649 -0.491519 -2.72479 0.299683 -0.429017 -2.72497 0.228168 -0.470962 -18.0359 7.992 2.73864 -18.2478 13.8936 5.64958 -0.0 0.0 -0.0 4.59277 23.6989 9.03713 -30.4001 -16.853 64.7703 0.324965 -9.1451 0.0259895 -62.699 -5.62019 5.17724 0.801956 21.0071 13.2717 -0.0 0.0 -0.0 11.0659 20.2216 -21.788 35.3069 -9.63941 -67.8339 0.97314 25.7366 -0.222318 85.153 4.44485 8.87316 1.47699 -29.8777 -19.8705 0.0 0.0 0.0 42.4301 36.2902 -33.1927 -12.4218 0.308952 1.87755 10.102 23.8837 -1.49319 12.519 -0.0 -0.0 -0.0 0.0 -0.0 -17.1638 9.31038 -6.69577 -7.41791 -0.233587 -1.11367 37.9489 -1.61883 4.68493 -9.03766 0.0 0.0 0.0 0.0 0.0 
2129.04 696.858 -486.978 146.206 -76.092 151.912 -2.70134 0.152524 -0.603122 -2.70116 0.190593 -0.592195 -2.70303 0.335882 -0.523646 -2.70333 0.248967 -0.570119 -18.9271 8.03554 3.15065 -19.1484 13.8208 6.1683 -0.0 0.0 -0.0 4.53871 24.0665 8.95293 -31.2636 -16.5444 65.0018 0.317268 -8.93204 0.0247803 -62.1791 -5.55493 5.16384 1.14532 20.8774 15.3275 -0.0 0.0 -0.0 10.4162 20.9959 -20.2622 34.6541 -7.58697 -68.2332 1.16609 30.0117 -0.312591 85.1178 4.44064 8.87155 1.78398 -29.8959 -21.6484 0.0 0.0 0.0 41.9555 35.278 -31.4168 -7.34265 0.231946 1.10224 7.61803 24.9728 -1.14088 11.1042 -0.0 -0.0 -0.0 0.0 -0.0 -17.7399 8.5207 -7.32214 -7.27114 -0.230371 -1.09138 39.2733 -1.56346 4.80319 -8.52166 0.0 0.0 0.0 0.0 0.0 
2140.38 696.12 -487.71 147.157 -76.5707 153.22 -2.70176 0.0218388 -0.615522 -2.70156 0.060961 -0.612885 -2.70201 0.215855 -0.576847 -2.70246 0.122046 -0.603697 -19.8513 7.96267 3.07498 -20.0931 13.7831 6.19427 -0.0 0.0 -0.0 4.69945 24.0158 9.17611 -31.547 -16.3957 65.0764 0.253559 -7.15934 0.0158622 -61.9263 -5.52324 5.1571 1.37664 20.8702 16.7543 -0.0 0.0 -0.0 10.8407 21.0284 -21.2171 35.0306 -7.92351 -68.5695 1.28715 32.5208 -0.375437 84.8585 4.40958 8.85959 1.91707 -29.8833 -22.4233 0.0 0.0 0.0 41.9071 34.805 -30.8279 -4.40751 0.156212 0.658216 5.67635 25.9475 -0.859262 10.6986 -0.0 -0.0 -0.0 0.0 -0.0 -18.0985 7.66102 -7.54359 -6.84954 -0.220814 -1.02739 38.3714 -0.196465 4.73165 -8.54526 0.0 0.0 0.0 0.0 0.0 
2160.35 691.989 -495.998 146.242 -77.8159 153.019 -2.72904 -0.00311586 -1.18636 -2.72826 0.0723765 -1.18416 -2.72897 0.373728 -1.12597 -2.73069 0.191225 -1.17086 -18.8086 7.92004 2.32234 -19.0493 14.0258 5.34028 -0.0 0.0 -0.0 4.54919 24.3372 8.96035 -32.1921 -16.2523 66.4029 0.263436 -7.43516 0.0171169 -61.8067 -5.50826 5.15386 1.58078 20.3438 17.8677 -0.0 0.0 -0.0 10.7925 21.3042 -21.0865 35.1529 -6.16698 -66.9239 1.44245 35.5455 -0.462387 83.7961 4.28296 8.80911 1.96728 -29.8465 -22.7103 0.0 0.0 0.0 41.7199 34.4844 -30.0177 -1.0143 0.0404336 0.150405 3.73686 25.3035 -0.566529 9.89779 -0.0 -0.0 -0.0 0.0 -0.0 -19.1952 7.66753 -7.53423 -6.24862 -0.206379 -0.936299 38.631 -1.59842 4.74628 -7.93822 0.0 0.0 0.0 0.0 0.0 
2180.71 688.177 -502.606 149.653 -78.8279 156.924 -2.47589 0.0420017 -1.32782 -2.47491 0.126402 -1.32246 -2.47696 0.455963 -1.2478 -2.47904 0.253193 -1.30414 -18.1826 7.99789 1.86501 -18.4282 14.3844 4.86403 -0.0 0.0 -0.0 4.54849 24.0483 8.96688 -32.4637 -16.1422 66.6607 0.232071 -6.55817 0.0132962 -61.2982 -5.44463 5.13976 1.85083 19.9976 19.4734 -0.0 0.0 -0.0 11.1087 22.2845 -21.7209 34.8844 -4.20127 -66.1999 1.51497 36.8848 -0.505237 84.1523 4.32531 8.8263 2.17068 -29.7765 -23.9 0.0 0.0 0.0 41.344 34.6449 -29.1951 0.302271 -0.0125648 -0.0446839 4.06329 25.65 -0.616665 9.68774 -0.0 -0.0 -0.0 0.0 -0.0 -19.654 7.39436 -7.38947 -5.18219 -0.17841 -0.775031 38.5856 -2.87492 4.73691 -7.60911 0.0 0.0 0.0 0.0 0.0 
